<?xml version="1.0" encoding="us-ascii" standalone="no"?><svg xmlns="http://www.w3.org/2000/svg" xmlns:xlink="http://www.w3.org/1999/xlink" contentStyleType="text/css" height="293px" preserveAspectRatio="none" style="width:538px;height:293px;background:#FFFFFF;" version="1.1" viewBox="0 0 538 293" width="538px" zoomAndPan="magnify"><defs/><g><!--cluster builder_shop--><g id="cluster_builder_shop"><path d="M8.5,6 L111.5,6 A3.75,3.75 0 0 1 114,8.5 L121,28.2969 L528.5,28.2969 A2.5,2.5 0 0 1 531,30.7969 L531,283.5 A2.5,2.5 0 0 1 528.5,286 L8.5,286 A2.5,2.5 0 0 1 6,283.5 L6,8.5 A2.5,2.5 0 0 1 8.5,6 " fill="none" style="stroke:#000000;stroke-width:1.5;"/><line style="stroke:#000000;stroke-width:1.5;" x1="6" x2="121" y1="28.2969" y2="28.2969"/><text fill="#000000" font-family="sans-serif" font-size="14" font-weight="bold" lengthAdjust="spacing" textLength="102" x="10" y="20.9951">builder_shop</text></g><!--cluster builder_shop.dart--><g id="cluster_builder_shop.dart"><path d="M32.5,49 L175.5,49 A3.75,3.75 0 0 1 178,51.5 L185,71.2969 L504.5,71.2969 A2.5,2.5 0 0 1 507,73.7969 L507,259.5 A2.5,2.5 0 0 1 504.5,262 L32.5,262 A2.5,2.5 0 0 1 30,259.5 L30,51.5 A2.5,2.5 0 0 1 32.5,49 " fill="none" style="stroke:#000000;stroke-width:1.5;"/><line style="stroke:#000000;stroke-width:1.5;" x1="30" x2="185" y1="71.2969" y2="71.2969"/><text fill="#000000" font-family="sans-serif" font-size="14" font-weight="bold" lengthAdjust="spacing" textLength="142" x="34" y="63.9951">builder_shop.dart</text></g><!--class Product--><g id="elem_Product"><rect codeLine="3" fill="#F1F1F1" height="96.8906" id="Product" rx="2.5" ry="2.5" style="stroke:#181818;stroke-width:0.5;" width="156" x="335" y="116.5"/><ellipse cx="380.75" cy="132.5" fill="#ADD1B2" rx="11" ry="11" style="stroke:#181818;stroke-width:1.0;"/><path d="M383.0938,128.1719 C382.1563,127.7344 381.5625,127.5938 380.6875,127.5938 C378.0625,127.5938 376.0625,129.6719 376.0625,132.3906 L376.0625,133.5156 C376.0625,136.0938 378.1719,137.9844 381.0625,137.9844 C382.2813,137.9844 383.4375,137.6875 384.1875,137.1406 C384.7656,136.7344 385.0938,136.2813 385.0938,135.8906 C385.0938,135.4375 384.7031,135.0469 384.2344,135.0469 C384.0156,135.0469 383.8125,135.125 383.625,135.3125 C383.1719,135.7969 383.1719,135.7969 382.9844,135.8906 C382.5625,136.1563 381.875,136.2813 381.1094,136.2813 C379.0625,136.2813 377.7656,135.1875 377.7656,133.4844 L377.7656,132.3906 C377.7656,130.6094 379.0156,129.2969 380.75,129.2969 C381.3281,129.2969 381.9375,129.4531 382.4063,129.7031 C382.8906,129.9844 383.0625,130.2031 383.1563,130.6094 C383.2188,131.0156 383.25,131.1406 383.3906,131.2656 C383.5313,131.4063 383.7656,131.5156 383.9844,131.5156 C384.25,131.5156 384.5156,131.375 384.6875,131.1563 C384.7969,131 384.8281,130.8125 384.8281,130.3906 L384.8281,128.9688 C384.8281,128.5313 384.8125,128.4063 384.7188,128.25 C384.5625,127.9844 384.2813,127.8438 383.9844,127.8438 C383.6875,127.8438 383.4844,127.9375 383.2656,128.25 L383.0938,128.1719 Z " fill="#000000"/><text fill="#000000" font-family="sans-serif" font-size="14" lengthAdjust="spacing" textLength="56" x="401.25" y="137.3467">Product</text><line style="stroke:#181818;stroke-width:0.5;" x1="336" x2="490" y1="148.5" y2="148.5"/><ellipse cx="346" cy="162.1484" fill="none" rx="3" ry="3" style="stroke:#038048;stroke-width:1.0;"/><text fill="#000000" font-family="sans-serif" font-size="14" lengthAdjust="spacing" textLength="88" x="355" y="165.4951">String name</text><ellipse cx="346" cy="178.4453" fill="none" rx="3" ry="3" style="stroke:#038048;stroke-width:1.0;"/><text fill="#000000" font-family="sans-serif" font-size="14" lengthAdjust="spacing" textLength="90" x="355" y="181.792">double price</text><ellipse cx="346" cy="194.7422" fill="none" rx="3" ry="3" style="stroke:#038048;stroke-width:1.0;"/><text fill="#000000" font-family="sans-serif" font-size="14" lengthAdjust="spacing" textLength="130" x="355" y="198.0889">String description</text><line style="stroke:#181818;stroke-width:0.5;" x1="336" x2="490" y1="205.3906" y2="205.3906"/></g><!--class ProductBuilder--><g id="elem_ProductBuilder"><rect codeLine="9" fill="#F1F1F1" height="162.0781" id="ProductBuilder" rx="2.5" ry="2.5" style="stroke:#181818;stroke-width:0.5;" width="253" x="46.5" y="84"/><ellipse cx="115.75" cy="100" fill="#ADD1B2" rx="11" ry="11" style="stroke:#181818;stroke-width:1.0;"/><path d="M118.0938,95.6719 C117.1563,95.2344 116.5625,95.0938 115.6875,95.0938 C113.0625,95.0938 111.0625,97.1719 111.0625,99.8906 L111.0625,101.0156 C111.0625,103.5938 113.1719,105.4844 116.0625,105.4844 C117.2813,105.4844 118.4375,105.1875 119.1875,104.6406 C119.7656,104.2344 120.0938,103.7813 120.0938,103.3906 C120.0938,102.9375 119.7031,102.5469 119.2344,102.5469 C119.0156,102.5469 118.8125,102.625 118.625,102.8125 C118.1719,103.2969 118.1719,103.2969 117.9844,103.3906 C117.5625,103.6563 116.875,103.7813 116.1094,103.7813 C114.0625,103.7813 112.7656,102.6875 112.7656,100.9844 L112.7656,99.8906 C112.7656,98.1094 114.0156,96.7969 115.75,96.7969 C116.3281,96.7969 116.9375,96.9531 117.4063,97.2031 C117.8906,97.4844 118.0625,97.7031 118.1563,98.1094 C118.2188,98.5156 118.25,98.6406 118.3906,98.7656 C118.5313,98.9063 118.7656,99.0156 118.9844,99.0156 C119.25,99.0156 119.5156,98.875 119.6875,98.6563 C119.7969,98.5 119.8281,98.3125 119.8281,97.8906 L119.8281,96.4688 C119.8281,96.0313 119.8125,95.9063 119.7188,95.75 C119.5625,95.4844 119.2813,95.3438 118.9844,95.3438 C118.6875,95.3438 118.4844,95.4375 118.2656,95.75 L118.0938,95.6719 Z " fill="#000000"/><text fill="#000000" font-family="sans-serif" font-size="14" lengthAdjust="spacing" textLength="106" x="136.25" y="104.8467">ProductBuilder</text><line style="stroke:#181818;stroke-width:0.5;" x1="47.5" x2="298.5" y1="116" y2="116"/><ellipse cx="57.5" cy="129.6484" fill="none" rx="3" ry="3" style="stroke:#038048;stroke-width:1.0;"/><text fill="#000000" font-family="sans-serif" font-size="14" lengthAdjust="spacing" textLength="88" x="66.5" y="132.9951">String name</text><ellipse cx="57.5" cy="145.9453" fill="none" rx="3" ry="3" style="stroke:#038048;stroke-width:1.0;"/><text fill="#000000" font-family="sans-serif" font-size="14" lengthAdjust="spacing" textLength="90" x="66.5" y="149.292">double price</text><ellipse cx="57.5" cy="162.2422" fill="none" rx="3" ry="3" style="stroke:#038048;stroke-width:1.0;"/><text fill="#000000" font-family="sans-serif" font-size="14" lengthAdjust="spacing" textLength="130" x="66.5" y="165.5889">String description</text><line style="stroke:#181818;stroke-width:0.5;" x1="47.5" x2="298.5" y1="172.8906" y2="172.8906"/><ellipse cx="57.5" cy="186.5391" fill="#84BE84" rx="3" ry="3" style="stroke:#038048;stroke-width:1.0;"/><text fill="#000000" font-family="sans-serif" font-size="14" lengthAdjust="spacing" textLength="184" x="66.5" y="189.8857">ProductBuilder setName()</text><ellipse cx="57.5" cy="202.8359" fill="#84BE84" rx="3" ry="3" style="stroke:#038048;stroke-width:1.0;"/><text fill="#000000" font-family="sans-serif" font-size="14" lengthAdjust="spacing" textLength="179" x="66.5" y="206.1826">ProductBuilder setPrice()</text><ellipse cx="57.5" cy="219.1328" fill="#84BE84" rx="3" ry="3" style="stroke:#038048;stroke-width:1.0;"/><text fill="#000000" font-family="sans-serif" font-size="14" lengthAdjust="spacing" textLength="227" x="66.5" y="222.4795">ProductBuilder setDescription()</text><ellipse cx="57.5" cy="235.4297" fill="#84BE84" rx="3" ry="3" style="stroke:#038048;stroke-width:1.0;"/><text fill="#000000" font-family="sans-serif" font-size="14" lengthAdjust="spacing" textLength="105" x="66.5" y="238.7764">Product build()</text></g><!--SRC=[dO_12i8m38RlVOgmaoBu03cAPndi0QHhWnPgMvBiDFRkTlFW1dhGu_z_oHSYf93iWwHOHnqLorOp0w8nBbeHQFeXH4zybNikYEjqz9OLiUNi1wSDZ0RWq2c7T5kSS_Hvw2D1uU1eXJs9ur0qv6Icdq-TNkJlYxNTca18BtL_j__Csbds3PxVviq8B0_KQde2]--></g></svg>